<?xml version="1.0" encoding="utf-8"?>
<!-- Generator: Adobe Illustrator 21.0.0, SVG Export Plug-In . SVG Version: 6.00 Build 0)  -->
<svg version="1.1" id="Layer_1" xmlns="http://www.w3.org/2000/svg" xmlns:xlink="http://www.w3.org/1999/xlink" x="0px" y="0px"
	 viewBox="-294 386.7 21.2 21.3" style="enable-background:new -294 386.7 21.2 21.3;" xml:space="preserve">
<g>
	<g>
		<g>
			<path d="M-279.37,387.7h-11.09c-0.62,0-1.13,0.51-1.13,1.13v3.85c0,0.21,0.17,0.38,0.38,0.38s0.38-0.17,0.38-0.38v-3.85
				c0-0.21,0.17-0.38,0.38-0.38h11.09c0.21,0,0.38,0.17,0.38,0.38v14.03c0,0.21-0.17,0.38-0.38,0.38h-11.09
				c-0.21,0-0.38-0.17-0.38-0.38v-7c0-0.21-0.17-0.38-0.38-0.38s-0.38,0.17-0.38,0.38v7c0,0.62,0.51,1.13,1.13,1.13h11.09
				c0.62,0,1.13-0.51,1.13-1.13v-14.03C-278.24,388.2-278.74,387.7-279.37,387.7z"/>
		</g>
	</g>
	<g>
		<g>
			<path d="M-290.94,394.1c-0.07-0.07-0.17-0.11-0.27-0.11s-0.2,0.04-0.27,0.11c-0.07,0.07-0.11,0.17-0.11,0.27
				c0,0.1,0.04,0.2,0.11,0.27c0.07,0.07,0.17,0.11,0.27,0.11c0.1,0,0.2-0.04,0.27-0.11c0.07-0.07,0.11-0.17,0.11-0.27
				C-290.83,394.26-290.87,394.17-290.94,394.1z"/>
		</g>
	</g>
	<g>
		<g>
			<path d="M-277.1,389.21c-0.21,0-0.38,0.17-0.38,0.38v14.78c0,0.21-0.17,0.38-0.38,0.38h-10.33c-0.21,0-0.38,0.17-0.38,0.38
				c0,0.21,0.17,0.38,0.38,0.38h10.33c0.62,0,1.13-0.51,1.13-1.13v-14.78C-276.72,389.38-276.89,389.21-277.1,389.21z"/>
		</g>
	</g>
	<g>
		<g>
			<path d="M-275.59,390.71c-0.21,0-0.38,0.17-0.38,0.38v14.78c0,0.21-0.17,0.38-0.38,0.38h-11.84c-0.21,0-0.38,0.17-0.38,0.38
				s0.17,0.38,0.38,0.38h11.84c0.62,0,1.13-0.51,1.13-1.13v-14.78C-275.21,390.88-275.38,390.71-275.59,390.71z"/>
		</g>
	</g>
	<g>
		<g>
			<path d="M-285.48,390.49h-3.62c-0.21,0-0.38,0.17-0.38,0.38v3.62c0,0.21,0.17,0.38,0.38,0.38h3.62c0.21,0,0.38-0.17,0.38-0.38
				v-3.62C-285.1,390.65-285.27,390.49-285.48,390.49z M-285.85,394.11h-2.87v-2.87h2.87V394.11z"/>
		</g>
	</g>
	<g>
		<g>
			<path d="M-286.69,396.57c-0.15-0.15-0.39-0.15-0.53,0l-1,1l-0.47-0.47c-0.15-0.15-0.39-0.15-0.53,0c-0.15,0.15-0.15,0.39,0,0.53
				l0.73,0.73c0.07,0.07,0.17,0.11,0.27,0.11c0.1,0,0.2-0.04,0.27-0.11l1.27-1.27C-286.54,396.96-286.54,396.72-286.69,396.57z"/>
		</g>
	</g>
	<g>
		<g>
			<path d="M-280.51,397.09h-4.4c-0.21,0-0.38,0.17-0.38,0.38c0,0.21,0.17,0.38,0.38,0.38h4.4c0.21,0,0.38-0.17,0.38-0.38
				C-280.13,397.25-280.3,397.09-280.51,397.09z"/>
		</g>
	</g>
	<g>
		<g>
			<path d="M-280.72,390.49h-2.64c-0.21,0-0.38,0.17-0.38,0.38c0,0.21,0.17,0.38,0.38,0.38h2.64c0.21,0,0.38-0.17,0.38-0.38
				C-280.35,390.65-280.52,390.49-280.72,390.49z"/>
		</g>
	</g>
	<g>
		<g>
			<path d="M-280.72,392.3h-2.64c-0.21,0-0.38,0.17-0.38,0.38c0,0.21,0.17,0.38,0.38,0.38h2.64c0.21,0,0.38-0.17,0.38-0.38
				C-280.35,392.47-280.52,392.3-280.72,392.3z"/>
		</g>
	</g>
	<g>
		<g>
			<path d="M-280.72,394.11h-2.64c-0.21,0-0.38,0.17-0.38,0.38c0,0.21,0.17,0.38,0.38,0.38h2.64c0.21,0,0.38-0.17,0.38-0.38
				C-280.35,394.28-280.52,394.11-280.72,394.11z"/>
		</g>
	</g>
	<g>
		<g>
			<path d="M-286.69,399.45c-0.15-0.15-0.39-0.15-0.53,0l-1,1l-0.47-0.47c-0.15-0.15-0.39-0.15-0.53,0c-0.15,0.15-0.15,0.39,0,0.53
				l0.73,0.73c0.07,0.07,0.17,0.11,0.27,0.11c0.1,0,0.2-0.04,0.27-0.11l1.27-1.27C-286.54,399.84-286.54,399.6-286.69,399.45z"/>
		</g>
	</g>
	<g>
		<g>
			<path d="M-280.51,399.95h-4.4c-0.21,0-0.38,0.17-0.38,0.38c0,0.21,0.17,0.38,0.38,0.38h4.4c0.21,0,0.38-0.17,0.38-0.38
				C-280.13,400.12-280.3,399.95-280.51,399.95z"/>
		</g>
	</g>
</g>
</svg>
